<svg width="400" height="400" fill="none" xmlns="http://www.w3.org/2000/svg">
  <style>
    .fill-foreground {
      fill: #2a2928;
    }

    @media (prefers-color-scheme: dark) {
      .fill-foreground {
        fill: #d7d6d5;
      }
    }
  </style>
  <path
    d="M45.158 222.666c0 4.261-2.298 8.074-6.004 10.045-1.786.953-3.33 1.308-8.487 1.308l-19.378.008V166.29l19.378.007c5.158 0 6.701.362 8.487 1.316 3.706 1.97 6.004 5.776 6.004 10.037v45.016zm-.704-65.027c-4.24-2.248-7.94-2.632-13.787-2.632L0 155v90.323l30.667-.007c5.848 0 9.547-.384 13.787-2.632 7.405-3.941 11.994-11.474 11.994-20.018V177.65c0-8.536-4.589-16.07-11.994-20.011zM114.296 194.51H80.427v-16.867c0-4.354 2.298-8.074 6.004-10.045 1.786-.946 3.33-1.308 8.48-1.308l4.894.007c5.15 0 6.687.355 8.487 1.309 3.699 1.97 6.004 5.783 6.004 10.037v16.867zm-.705-36.871c-4.24-2.255-7.939-2.632-13.786-2.632L94.91 155c-5.848 0-9.547.377-13.78 2.632-7.405 3.934-11.993 11.475-11.993 20.011l-.008 67.68h11.297v-39.524h33.869v39.524h11.289v-67.68c0-8.536-4.603-16.07-11.994-20.004zM183.427 222.673c0 4.354-2.298 8.074-6.004 10.045-1.793.946-3.33 1.309-8.48 1.309l-4.894-.008c-5.158 0-6.694-.355-8.487-1.308-3.699-1.971-6.004-5.784-6.004-10.045v-28.149h-11.289v28.149c0 8.544 4.595 16.077 11.993 20.018 4.24 2.248 7.939 2.632 13.787 2.632l4.894.007c5.84 0 9.54-.384 13.779-2.639 7.399-3.934 11.994-11.474 11.994-20.011V155h-11.289v67.673zM252.564 194.51h-33.868v-16.867c0-4.354 2.297-8.074 6.004-10.045 1.785-.946 3.329-1.308 8.479-1.308l4.894.007c5.151 0 6.687.355 8.487 1.309 3.699 1.97 6.004 5.783 6.004 10.037v16.867zm-.704-36.871c-4.24-2.255-7.939-2.632-13.787-2.632l-4.894-.007c-5.847 0-9.547.377-13.779 2.632-7.406 3.934-11.994 11.475-11.994 20.011l-.007 67.68h11.297v-39.524h33.868v39.524h11.29v-67.68c0-8.536-4.603-16.07-11.994-20.004z"
    class="fill-foreground"
  />
  <path
    d="M289.938 166.29h22.551a11.277 11.277 0 0111.318 11.289c0 6.225-5.015 11.29-11.318 11.29h-22.551V166.29zm22.551 33.868c12.527 0 22.608-10.13 22.608-22.579 0-12.456-10.081-22.579-22.608-22.579h-33.84v90.323h11.289v-45.165l31.408 45.165h13.751l-31.408-45.165h8.8z"
    fill="#B61F38"
  />
  <path
    d="M355.546 157.639c-7.391 3.934-11.994 11.475-11.994 20.011v45.016c0 8.544 4.603 16.077 11.994 20.018 4.24 2.248 7.946 2.632 13.786 2.632l30.668.007v-11.289l-30.668-.015c-5.15 0-6.694-.355-8.486-1.308-3.699-1.971-5.997-5.784-5.997-10.045v-16.86H400v-11.289h-45.151V177.65c0-4.261 2.298-8.067 5.997-10.037 1.792-.954 3.336-1.316 8.486-1.316L400 166.29V155l-30.668.007c-5.84 0-9.546.384-13.786 2.632z"
    class="fill-foreground"
  />
</svg>
