<?xml version="1.0" encoding="UTF-8" standalone="no"?>
<!-- Created with Inkscape (http://www.inkscape.org/) -->

<svg
   xmlns:dc="http://purl.org/dc/elements/1.1/"
   xmlns:cc="http://creativecommons.org/ns#"
   xmlns:rdf="http://www.w3.org/1999/02/22-rdf-syntax-ns#"
   xmlns:svg="http://www.w3.org/2000/svg"
   xmlns="http://www.w3.org/2000/svg"
   xmlns:sodipodi="http://sodipodi.sourceforge.net/DTD/sodipodi-0.dtd"
   xmlns:inkscape="http://www.inkscape.org/namespaces/inkscape"
   width="200mm"
   height="200mm"
   viewBox="0 0 200 200"
   version="1.1"
   id="svg8"
   inkscape:export-filename="/tmp/bitmap.png"
   inkscape:export-xdpi="90"
   inkscape:export-ydpi="90"
   inkscape:version="0.92.3 (2405546, 2018-03-11)"
   sodipodi:docname="source.svg">
  <defs
     id="defs2" />
  <sodipodi:namedview
     id="base"
     pagecolor="#ffffff"
     bordercolor="#666666"
     borderopacity="1.0"
     inkscape:pageopacity="0.0"
     inkscape:pageshadow="2"
     inkscape:zoom="0.49497475"
     inkscape:cx="45.297326"
     inkscape:cy="212.11939"
     inkscape:document-units="mm"
     inkscape:current-layer="layer1"
     showgrid="false"
     fit-margin-top="0"
     fit-margin-left="36"
     fit-margin-right="36"
     fit-margin-bottom="0"
     inkscape:window-width="1920"
     inkscape:window-height="1018"
     inkscape:window-x="0"
     inkscape:window-y="34"
     inkscape:window-maximized="1" />
  <metadata
     id="metadata5">
    <rdf:RDF>
      <cc:Work
         rdf:about="">
        <dc:format>image/svg+xml</dc:format>
        <dc:type
           rdf:resource="http://purl.org/dc/dcmitype/StillImage" />
        <dc:title></dc:title>
      </cc:Work>
    </rdf:RDF>
  </metadata>
  <g
     inkscape:label="Layer 1"
     inkscape:groupmode="layer"
     id="layer1"
     transform="translate(28.428381,98.31391)">
    <rect
       style="opacity:1;fill:#ffffff;fill-opacity:1;stroke:none;stroke-width:0.07800934;stroke-linecap:round;stroke-linejoin:bevel;stroke-miterlimit:4;stroke-dasharray:none;stroke-dashoffset:9.99999905;stroke-opacity:1"
       id="rect8159"
       width="200"
       height="200"
       x="-28.428381"
       y="-98.313911" />
    <g
       aria-label="DAJARE"
       style="font-style:normal;font-weight:normal;font-size:10.58333302px;line-height:1.25;font-family:sans-serif;letter-spacing:0px;word-spacing:0px;fill:#000000;fill-opacity:1;stroke:none;stroke-width:0.26458332"
       id="text817">
      <path
         d="m 17.219588,-8.8803097 h -4.0132 V 12.60809 l 4.064,-0.1524 q 2.794,-0.1016 3.556,-0.2032 0.8128,-0.1524 1.3716,-0.508 0.8128,-0.5588 1.0668,-1.3208 0.3048,-0.8128 0.4064,-2.4383999 0.1016,-1.6764 0.1016,-6.3499999 0,-2.8956 -0.0508,-4.2672 0,-1.4223999 -0.1016,-2.5907999 -0.0508,-1.2192 -0.3048,-1.6764 -0.2032,-0.508 -0.4572,-0.8128 -0.254,-0.3048 -0.8128,-0.6604 -0.5588,-0.3556 -1.3716,-0.4064 -0.762,-0.1016 -3.4544,-0.1016 z M 9.497988,16.26569 v -28.8544 h 6.0452 q 5.334,0 6.858,0.3556 1.524,0.3048 2.9464,1.7272 1.524,1.5240003 1.8288,3.3020003 0.3048,1.7272 0.3048,8.8391999 0,7.3151999 -0.3048,9.0931998 -0.3048,1.7272 -1.8796,3.2512 -0.9144,0.8128 -1.4224,1.1684 -0.4572,0.3556 -1.3208,0.6096 -0.8128,0.2032 -1.3208,0.2032 -0.508,0 -2.286,0.0508 -1.7272,0.0508 -3.302,0.1524 z"
         style="font-size:50.79999924px;line-height:13.22916603px;fill:#6b6b6b;fill-opacity:1"
         id="path12238" />
      <path
         d="m 34.545562,-3.1907098 v 2.99719999 h 10.5664 V -2.9367098 q 0,-2.2859999 -0.3048,-3.3019999 -0.254,-1.0668 -1.1176,-1.8796 -0.4572,-0.4572 -1.016,-0.508 -0.5588,-0.1016 -2.6924,-0.2032 -2.032,-0.0508 -2.6416,0.0508 -0.6096,0.0508 -1.1684,0.3556 -1.0668,0.6096 -1.3716,1.6256 -0.254,0.9652 -0.254,3.6067999 z m 14.224,19.4055998 h -3.6576 V 3.5148901 h -10.5664 V 16.21489 h -3.9116 V -7.2039097 q 1.9812,-4.0132003 4.7752,-4.9784003 1.27,-0.4572 4.7752,-0.3556 3.5052,0.0508 4.5212,0.5588 2.0828,1.0668 3.3528,3.4036003 0.4572,0.8128 0.508,2.4892 0.1016,1.6764 0.2032,10.5155998 z"
         style="font-size:50.79999924px;line-height:13.22916603px;fill:#6b6b6b;fill-opacity:1"
         id="path12240" />
      <path
         d="M 66.494793,-1.6159098 V -12.58871 h 3.7084 l -0.1016,11.7856002 q -0.1016,8.5851999 -0.1524,10.4139998 -0.0508,1.778 -0.4064,2.3876 -1.2192,2.3368 -3.4544,3.4544 -1.1684,0.5588 -1.8796,0.6604 -0.6604,0.1016 -2.9464,0.1016 -2.794,0 -4.1656,-0.3556 -1.3208,-0.3556 -2.5908,-1.4732 -1.574799,-1.3716 -2.031999,-2.9464 -0.4064,-1.5748 -0.508,-6.1467999 l -0.1016,-5.18159991 h 4.013199 V 5.0388901 q 0,3.302 0.0508,4.3179999 0.1016,0.9652 0.4572,1.4732 0.6604,1.016 1.7272,1.3716 1.0668,0.3556 3.4544,0.254 1.9812,-0.1016 2.4892,-0.1524 0.508,-0.1016 0.9652,-0.5588 1.0668,-1.016 1.27,-2.7431999 0.2032,-1.778 0.2032,-10.6171999 z"
         style="font-size:50.79999924px;line-height:13.22916603px;fill:#6b6b6b;fill-opacity:1"
         id="path12242" />
      <path
         d="m 77.308841,-3.1907098 v 2.99719999 h 10.5664 V -2.9367098 q 0,-2.2859999 -0.3048,-3.3019999 -0.254,-1.0668 -1.1176,-1.8796 -0.4572,-0.4572 -1.016,-0.508 -0.5588,-0.1016 -2.6924,-0.2032 -2.032,-0.0508 -2.6416,0.0508 -0.6096,0.0508 -1.1684,0.3556 -1.0668,0.6096 -1.3716,1.6256 -0.254,0.9652 -0.254,3.6067999 z m 14.224,19.4055998 h -3.6576 V 3.5148901 h -10.5664 V 16.21489 h -3.9116 V -7.2039097 q 1.9812,-4.0132003 4.7752,-4.9784003 1.27,-0.4572 4.7752,-0.3556 3.5052,0.0508 4.5212,0.5588 2.0828,1.0668 3.3528,3.4036003 0.4572,0.8128 0.508,2.4892 0.1016,1.6764 0.2032,10.5155998 z"
         style="font-size:50.79999924px;line-height:13.22916603px;fill:#6b6b6b;fill-opacity:1"
         id="path12244" />
      <path
         d="m 102.40007,-8.8803097 h -4.063998 v 6.8579999 q 0.3048,0 2.895598,0.0508 2.5908,0 4.064,-0.1016 1.524,-0.1016 1.7272,-0.4064 0.7112,-0.3556 1.27,-1.27 0.6096,-0.9651999 0.6096,-1.6763999 0,-0.8128 -0.508,-1.6764 -0.4572,-0.8636 -1.1176,-1.27 -0.5588,-0.3556 -1.3716,-0.4064 -0.8128,-0.1016 -3.5052,-0.1016 z M 94.627672,16.21489 v -29.1084 h 5.2324 q 7.467598,0 9.042398,1.016 2.2352,1.3716 3.1496,3.7592003 0.9652,2.3876 0.254,4.7751999 -0.3556,1.1684 -1.3716,2.4384 -1.016,1.21919998 -2.1336,1.77799998 -0.3556,0.25400002 -0.8636,0.40640002 -0.4572,0.1524 -1.2192,0.254 -0.7112,0.1016 -1.2192,0.1524 -0.4572,0 -1.4224,0.1016 -0.9652,0.0508 -1.27,0.0508 8.3312,11.6839998 9.8044,14.2239998 -0.254,0.1524 -4.4196,0.1524 L 98.386872,2.1940902 V 16.21489 Z"
         style="font-style:normal;font-variant:normal;font-weight:normal;font-stretch:normal;font-size:50.79999924px;line-height:13.22916603px;font-family:rits;-inkscape-font-specification:rits;fill:#b61f38;fill-opacity:1;stroke-width:0.26458332"
         id="path12246" />
      <path
         d="m 127.34605,-12.58871 h 6.2992 v 3.7084003 h -5.8928 q -4.0132,0 -5.1308,0.1016 -1.0668,0.0508 -1.6256,0.4064 -1.016,0.6604 -1.3208,1.6256 -0.3048,0.9652 -0.3048,3.5559999 v 2.99719999 h 14.2748 V 3.5148901 h -14.3256 l 0.2032,6.9087999 q 1.4224,1.524 2.4892,1.778 1.0668,0.2032 6.8072,0.3048 h 4.826 v 3.7084 h -5.08 q -5.5372,0 -7.5692,-0.4064 -2.032,-0.4572 -3.4544,-1.9812 -1.3716,-1.4732 -1.6256,-3.0988 -0.254,-1.6763999 -0.254,-9.0423998 -0.0508,-6.4515999 0.0508,-7.8231999 0.1016,-1.3716 0.5588,-2.3876 1.1684,-2.3876003 3.6068,-3.5052003 0.8128,-0.4064 1.9812,-0.4572 1.1684,-0.1016 5.4864,-0.1016 z"
         style="font-size:50.79999924px;line-height:13.22916603px;fill:#6b6b6b;fill-opacity:1"
         id="path12248" />
    </g>
    <flowRoot
       xml:space="preserve"
       id="flowRoot8151"
       style="font-style:normal;font-weight:normal;font-size:40px;line-height:1.25;font-family:sans-serif;letter-spacing:0px;word-spacing:0px;fill:#000000;fill-opacity:1;stroke:none"
       transform="scale(0.26458333)"><flowRegion
         id="flowRegion8153"><rect
           id="rect8155"
           width="1874.8431"
           height="840.4469"
           x="-2109.1985"
           y="-3645.4004" /></flowRegion><flowPara
         id="flowPara8157"></flowPara></flowRoot>  </g>
</svg>
